# xmcd
#
# Track frame offsets: 
#        150
#        10992
#        21604
#        34050
#        44372
#        55365
#        65959
#        76261
#        87230
#        99033
#
# Disc length: 1512 seconds
#
# Revision: 2
# Processed by: cddbd v1.5.2PL0 Copyright (c) Steve Scherf et al.
# Submitted via: ExactAudioCopy v0.99pb4
#
DISCID=7e05e60a
DTITLE=Patsy Cline - Patsy Cline - Disc 2
DYEAR=2007
DGENRE=Country
TTITLE0=I Cried All the Way to the Altar
TTITLE1=Honky Tonk Merry Go Round
TTITLE2=Fingerprints
TTITLE3=He'll Do For You (What He's Done For Me)
TTITLE4=I Can't Forget
TTITLE5=I Don't Wanna
TTITLE6=Pick Me Up (On Your Way Down)
TTITLE7=There He Goes
TTITLE8=If I Could Only Stay
TTITLE9=Then You'll Know
EXTD=Madacy Entertainment TCD2 53463\n
EXTT0=
EXTT1=
EXTT2=
EXTT3=
EXTT4=
EXTT5=
EXTT6=
EXTT7=
EXTT8=
EXTT9=
PLAYORDER=
